<?xml version="1.0" encoding="UTF-8"?>
<svg width="104px" height="30px" viewBox="0 0 104 30" version="1.1" xmlns="http://www.w3.org/2000/svg" xmlns:xlink="http://www.w3.org/1999/xlink">
    <title>形状结合</title>
    <g id="页面-1" stroke="none" stroke-width="1" fill="none" fill-rule="evenodd">
        <g id="区块链浏览器首页-无右侧广告" transform="translate(-40.000000, -15.000000)" fill="#38DDA6" fill-rule="nonzero">
            <path d="M55.1180488,31.0606061 L62.2712195,43.2828283 L61.2819512,45 L51.3385366,44.9747475 L49.5882927,45 L50.2985366,43.7121212 L51.2878049,41.8434343 L57.8068293,41.8686869 L53.2917073,34.1919192 L44.3882927,34.1919192 L47.6858537,39.7979798 L45.8087805,42.8282828 L40.1521951,32.9040404 L40.177561,32.9040404 L40,32.6262626 L40.8878049,31.0606061 L55.1180488,31.0606061 Z M65.8478049,17.7272727 L66.0253659,18.0050505 L70.9717073,26.2878788 L71.884878,27.7777778 L68.2068293,27.7777778 L65.0614634,22.2979798 L60.6478049,30 L65.1121951,37.6767677 L68.257561,32.1212121 L71.9102439,32.1212121 L66,42.1717172 L65.9746341,42.2474747 L64.1482927,42.2727273 L57.0204878,30.0252525 L64.0468293,17.7272727 L65.8478049,17.7272727 Z M50.8565854,37.5757576 L50.8819512,37.5757576 C50.9580488,37.6010101 51.0087805,37.6515152 51.084878,37.6767677 C51.1356098,37.7020202 51.2117073,37.7525253 51.262439,37.7777778 C51.3385366,37.8282828 51.3892683,37.8535354 51.4653659,37.9040404 C51.5160976,37.9545455 51.5921951,37.979798 51.6429268,38.030303 L51.6936585,38.0555556 C51.7443902,38.0808081 51.7697561,38.1313131 51.8204878,38.1565657 L51.8712195,38.2070707 L51.8712195,38.2070707 C51.8965854,38.2323232 51.9473171,38.2828283 51.9726829,38.3080808 L52.0107317,38.3459596 L52.0107317,38.3459596 L52.1183017,38.453049 C52.1305149,38.4652076 52.1417886,38.476431 52.1502439,38.4848485 L52.1821861,38.516648 C52.1868835,38.5213244 52.1925203,38.526936 52.2009756,38.5353535 C52.2263415,38.5606061 52.2517073,38.6111111 52.2770732,38.6363636 L52.302439,38.6868687 L52.3404878,38.7373737 L52.3404878,38.7373737 L52.3785366,38.7878788 L52.4039024,38.8383838 C52.4292683,38.8888889 52.48,38.9393939 52.5053659,39.0151515 C52.5307317,39.0656566 52.5560976,39.1161616 52.5814634,39.1666667 L52.6068293,39.1919192 C52.6068293,39.2087542 52.618103,39.2255892 52.6256188,39.234942 L52.6321951,39.2424242 L52.6321951,39.2424242 C52.6321951,39.2676768 52.6321951,39.2676768 52.657561,39.2929293 C52.657561,39.3181818 52.6829268,39.3686869 52.6829268,39.3939394 L52.7082927,39.469697 L52.7082927,39.469697 L52.7082927,39.9494949 C52.7082927,39.9747475 52.6829268,40.0252525 52.6829268,40.0505051 C52.6660163,40.0841751 52.6603794,40.1066218 52.6509846,40.1328096 L52.6321951,40.1767677 C52.3278049,40.5050505 51.9219512,40.6818182 51.4146341,40.6818182 C51.1609756,40.6818182 50.9073171,40.6313131 50.6282927,40.5555556 C50.3239024,40.479798 50.044878,40.3282828 49.7658537,40.1767677 C49.004878,39.7222222 48.4721951,39.040404 48.3707317,38.4090909 C48.3272474,38.1709957 48.3769438,37.9514533 48.4878731,37.7663663 L48.5482927,37.6767677 L48.5482927,37.6767677 C48.5736585,37.6515152 48.5990244,37.6010101 48.6497561,37.5757576 L48.7258537,37.5252525 L48.7258537,37.5252525 C48.7512195,37.5252525 48.7512195,37.5 48.7765854,37.5 L48.84,37.4621212 L48.84,37.4621212 L48.9034146,37.4242424 L48.9034146,37.4242424 C49.3853659,37.1969697 50.1209756,37.2474747 50.8565854,37.5757576 Z M81.2195122,34.5959596 C82.1580488,34.5959596 82.8936585,35.1515152 83.0712195,36.1868687 L82.284878,36.1868687 C82.1580488,35.6565657 81.8029268,35.3030303 81.244878,35.3030303 C80.9404878,35.3030303 80.6614634,35.4292929 80.4839024,35.6060606 C80.2302439,35.8838384 80.1795122,36.1868687 80.1795122,37.2222222 C80.1795122,38.2575758 80.2302439,38.5606061 80.4839024,38.8383838 C80.6614634,39.040404 80.9404878,39.1414141 81.244878,39.1414141 C81.8282927,39.1414141 82.1834146,38.7878788 82.3102439,38.2575758 L83.0965854,38.2575758 C82.8936585,39.2676768 82.1580488,39.8484848 81.2195122,39.8484848 C80.6868293,39.8484848 80.204878,39.6464646 79.8497561,39.2929293 C79.378676,38.8239538 79.3450274,38.2896568 79.3426239,37.4271965 L79.342439,37.2222222 C79.342439,36.2373737 79.342439,35.6565657 79.8497561,35.1515152 C80.204878,34.7979798 80.6614634,34.5959596 81.2195122,34.5959596 Z M85.8614634,34.5959596 C86.4195122,34.5959596 86.8760976,34.7979798 87.2312195,35.1515152 C87.6660627,35.5844156 87.709547,36.0729746 87.7130968,36.8239244 L87.7131707,37.2222222 L87.7131707,37.2222222 C87.7385366,38.2070707 87.7385366,38.7878788 87.2312195,39.2929293 C86.8760976,39.6464646 86.4195122,39.8484848 85.8614634,39.8484848 C85.3034146,39.8484848 84.8468293,39.6464646 84.4917073,39.2929293 C84.0206272,38.8239538 83.9869786,38.2896568 83.9845751,37.4271965 L83.9843902,37.2222222 C83.9843902,36.2373737 83.9843902,35.6565657 84.4917073,35.1515152 C84.8468293,34.7979798 85.3034146,34.5959596 85.8614634,34.5959596 Z M125.178537,34.5959596 C126.117073,34.5959596 126.852683,35.1515152 127.030244,36.1868687 L126.243902,36.1868687 C126.117073,35.6565657 125.761951,35.3030303 125.203902,35.3030303 C124.899512,35.3030303 124.620488,35.4292929 124.442927,35.6060606 C124.189268,35.8838384 124.138537,36.1868687 124.138537,37.2222222 C124.138537,38.2575758 124.189268,38.5606061 124.442927,38.8383838 C124.620488,39.040404 124.899512,39.1414141 125.203902,39.1414141 C125.787317,39.1414141 126.142439,38.7878788 126.269268,38.2575758 L127.05561,38.2575758 C126.852683,39.2676768 126.117073,39.8484848 125.178537,39.8484848 C124.645854,39.8484848 124.163902,39.6464646 123.80878,39.2929293 C123.3377,38.8239538 123.304052,38.2896568 123.301648,37.4271965 L123.301463,37.2222222 C123.301463,36.2373737 123.301463,35.6565657 123.80878,35.1515152 C124.163902,34.7979798 124.620488,34.5959596 125.178537,34.5959596 Z M101.66439,34.6464646 L101.66439,38.030303 C101.66439,38.7121212 102.09561,39.1414141 102.729756,39.1414141 C103.363902,39.1414141 103.795122,38.7121212 103.795122,38.030303 L103.795122,34.6464646 L104.581463,34.6464646 L104.581463,38.0555556 C104.581463,39.1161616 103.769756,39.8484848 102.729756,39.8484848 C101.66439,39.8484848 100.878049,39.1414141 100.878049,38.0555556 L100.878049,34.6464646 L101.66439,34.6464646 Z M140.829268,34.6464646 L143.213659,38.2575758 L143.213659,34.6464646 L144,34.6464646 L144,39.7979798 L143.289756,39.7979798 L140.905366,36.1616162 L140.905366,39.7979798 L140.119024,39.7979798 L140.119024,34.6464646 L140.829268,34.6464646 Z M128.932683,34.6464646 L128.932683,36.8434343 L131.038049,36.8434343 L131.038049,34.6464646 L131.82439,34.6464646 L131.82439,39.7979798 L131.038049,39.7979798 L131.038049,37.5505051 L128.932683,37.5505051 L128.932683,39.7979798 L128.146341,39.7979798 L128.146341,34.6464646 L128.932683,34.6464646 Z M117.847805,34.6464646 L118.938537,36.9191919 L120.029268,34.6464646 L120.891707,34.6464646 L119.319024,37.6767677 L119.319024,39.7979798 L118.532683,39.7979798 L118.532683,37.6767677 L116.985366,34.6464646 L117.847805,34.6464646 Z M135.198049,34.6464646 L137.100488,39.7979798 L136.238049,39.7979798 L135.882927,38.7626263 L133.853659,38.7626263 L133.498537,39.7979798 L132.661463,39.7979798 L134.563902,34.6464646 L135.198049,34.6464646 Z M95.7541463,34.6464646 L97.2760976,37.8535354 L98.7473171,34.6464646 L99.5336585,34.6464646 L99.5336585,39.7979798 L98.7473171,39.7979798 L98.7473171,36.3636364 L97.555122,38.8636364 L96.9717073,38.8636364 L95.7541463,36.3636364 L95.7541463,39.7979798 L94.9678049,39.7979798 L94.9678049,34.6464646 L95.7541463,34.6464646 Z M138.673171,34.6464646 L138.673171,39.7979798 L137.886829,39.7979798 L137.886829,34.6464646 L138.673171,34.6464646 Z M106.661463,34.6464646 L109.045854,38.2575758 L109.045854,34.6464646 L109.832195,34.6464646 L109.832195,39.7979798 L109.121951,39.7979798 L106.737561,36.1616162 L106.737561,39.7979798 L105.95122,39.7979798 L105.95122,34.6464646 L106.661463,34.6464646 Z M112.06439,34.6464646 L112.06439,39.7979798 L111.278049,39.7979798 L111.278049,34.6464646 L112.06439,34.6464646 Z M89.7678049,34.6464646 L91.2897561,37.8535354 L92.7609756,34.6464646 L93.5473171,34.6464646 L93.5473171,39.7979798 L92.7356098,39.7979798 L92.7356098,36.3636364 L91.5434146,38.8636364 L90.9853659,38.8636364 L89.7678049,36.3636364 L89.7678049,39.7979798 L88.9814634,39.7979798 L88.9814634,34.6464646 L89.7678049,34.6464646 Z M116.65561,34.6212121 L116.65561,35.3282828 L115.235122,35.3282828 L115.235122,39.7727273 L114.44878,39.7727273 L114.44878,35.3282828 L113.028293,35.3282828 L113.028293,34.6212121 L116.65561,34.6212121 Z M50.3492683,34.7979798 L53.0126829,34.8232323 L54.382439,37.2474747 L53.1395122,39.2676768 C53.1395122,39.2424242 53.1395122,39.2171717 53.1141463,39.1919192 L53.1141463,39.1666667 L53.1141463,39.1666667 C53.0972358,39.1161616 53.0803252,39.0881033 53.0709304,39.0600449 L53.0634146,39.0151515 L53.0634146,39.0151515 C53.0634146,38.9983165 53.0521409,38.9702581 53.0446251,38.9459409 L53.0380488,38.9141414 L53.0380488,38.9141414 C53.0380488,38.8973064 53.0380488,38.8916947 53.030533,38.8823419 L53.0126829,38.8636364 L53.0126829,38.8636364 L52.9746341,38.7752525 L52.9746341,38.7752525 L52.9365854,38.6868687 L52.9365854,38.6868687 C52.7082927,38.2070707 52.2770732,37.7777778 51.7697561,37.4242424 C51.6936585,37.3737374 51.6429268,37.3232323 51.5668293,37.2979798 C51.4907317,37.2474747 51.44,37.2222222 51.3639024,37.1717172 L51.3385366,37.1717172 L51.3385366,37.1717172 L51.262439,37.1212121 L51.262439,37.1212121 C51.2117073,37.0959596 51.1863415,37.0707071 51.1356098,37.0707071 L51.1102439,37.0707071 C51.084878,37.0707071 51.0595122,37.0454545 51.0595122,37.0454545 C51.0087805,37.020202 50.9580488,36.9949495 50.9326829,36.9949495 L50.8810117,36.969697 L50.8810117,36.969697 L50.8565854,36.969697 L50.8565854,36.969697 C50.8312195,36.969697 50.8058537,36.9444444 50.8058537,36.9444444 C50.755122,36.9191919 50.7297561,36.9191919 50.6790244,36.8939394 L50.6282927,36.8686869 L50.6029268,36.8686869 L50.6029268,36.8686869 C50.5521951,36.8686869 50.5268293,36.8434343 50.4760976,36.8434343 L50.4380488,36.8308081 L50.4380488,36.8308081 L50.4,36.8181818 C50.3492683,36.8181818 50.3239024,36.7929293 50.2985366,36.7929293 C50.2731707,36.7929293 50.2478049,36.7929293 50.222439,36.7676768 L50.0702439,36.7676768 L50.0702439,36.7676768 C49.9941463,36.7676768 49.9180488,36.7424242 49.8419512,36.7424242 L49.537561,36.7424242 C49.4868293,36.7424242 49.4360976,36.7424242 49.3853659,36.7676768 L49.3092683,36.7676768 L49.3092683,36.7676768 C49.2585366,36.7676768 49.2078049,36.7929293 49.182439,36.7929293 C49.1570732,36.7929293 49.1317073,36.7929293 49.1063415,36.8181818 L50.3492683,34.7979798 Z M85.8868293,35.2777778 C85.582439,35.2777778 85.3034146,35.4040404 85.1258537,35.6060606 C84.8721951,35.8838384 84.8214634,36.1616162 84.8214634,37.1969697 C84.8214634,38.2323232 84.8721951,38.510101 85.1258537,38.7878788 C85.3034146,38.989899 85.582439,39.1161616 85.8868293,39.1161616 C86.1912195,39.1161616 86.4702439,38.989899 86.6478049,38.7878788 C86.9014634,38.510101 86.9521951,38.2323232 86.9521951,37.1969697 C86.9521951,36.1868687 86.9014634,35.8838384 86.6478049,35.6060606 C86.4702439,35.4040404 86.1912195,35.2777778 85.8868293,35.2777778 Z M134.868293,35.8080808 L134.056585,38.1060606 L135.654634,38.1060606 L134.868293,35.8080808 Z M108.842927,20.1262626 C109.654634,20.1262626 110.364878,20.2777778 110.999024,20.5808081 C112.36878,21.2373737 113.155122,22.5252525 113.40878,23.989899 C113.40878,24.0151515 113.383415,24.040404 113.358049,24.040404 L113.358049,24.040404 L110.999024,24.040404 C110.948293,24.040404 110.922927,24.0151515 110.922927,23.989899 C110.846829,23.6363636 110.72,23.3585859 110.542439,23.1060606 C110.136585,22.5252525 109.527805,22.2727273 108.842927,22.2727273 C107.802927,22.2727273 106.965854,22.9040404 106.788293,23.9646465 C106.737561,24.2171717 106.712195,24.5454545 106.686829,24.9242424 C106.661463,25.3282828 106.661463,25.8080808 106.661463,26.4141414 L106.661666,26.7537374 C106.662478,27.1949495 106.666537,27.5909091 106.686829,27.9545455 C106.712195,28.3333333 106.737561,28.6616162 106.788293,28.9141414 C106.99122,29.9747475 107.802927,30.6060606 108.842927,30.6060606 C109.527805,30.6060606 110.136585,30.3535354 110.542439,29.7727273 C110.694634,29.520202 110.846829,29.2171717 110.922927,28.8888889 C110.948293,28.8636364 110.948293,28.8383838 110.999024,28.8383838 L110.999024,28.8383838 L113.358049,28.8383838 C113.40878,28.8383838 113.40878,28.8636364 113.40878,28.8888889 C113.155122,30.3535354 112.36878,31.6414141 110.999024,32.2979798 C110.364878,32.6010101 109.654634,32.7525253 108.842927,32.7525253 C107.523902,32.7525253 106.407805,32.2979798 105.494634,31.3888889 C104.961951,30.8585859 104.632195,30.2272727 104.48,29.520202 C104.353171,28.8131313 104.277073,27.8030303 104.277073,26.4393939 C104.277073,25.0757576 104.353171,24.0656566 104.48,23.3585859 C104.632195,22.6262626 104.987317,21.9949495 105.494634,21.489899 C106.407805,20.5808081 107.523902,20.1262626 108.842927,20.1262626 Z M120.08,20.1010101 C120.790244,20.1010101 121.399024,20.2272727 121.957073,20.4545455 C122.515122,20.6818182 122.997073,21.0353535 123.428293,21.4646465 C123.758049,21.7929293 123.986341,22.1212121 124.163902,22.4747475 C124.316098,22.8282828 124.442927,23.2070707 124.519024,23.6111111 C124.595122,24.0151515 124.620488,24.469697 124.645854,24.9242424 C124.67122,25.3787879 124.67122,25.8838384 124.67122,26.4141414 C124.67122,26.9444444 124.67122,27.4242424 124.645854,27.9040404 C124.645854,28.3838384 124.595122,28.8131313 124.519024,29.2171717 C124.468293,29.6212121 124.341463,30 124.163902,30.3535354 C123.986341,30.7070707 123.732683,31.0606061 123.428293,31.3636364 C122.997073,31.8181818 122.515122,32.1464646 121.957073,32.3737374 C121.399024,32.6010101 120.790244,32.7272727 120.08,32.7272727 C119.395122,32.7272727 118.760976,32.6010101 118.202927,32.3737374 C117.670244,32.1464646 117.162927,31.7929293 116.731707,31.3636364 C116.427317,31.0353535 116.199024,30.7070707 116.021463,30.3535354 C115.869268,30 115.742439,29.6212121 115.666341,29.2171717 C115.590244,28.8131313 115.539512,28.3585859 115.539512,27.9040404 C115.514146,27.4494949 115.514146,26.9444444 115.514146,26.4141414 C115.514146,25.8838384 115.539512,25.3787879 115.539512,24.9242424 C115.564878,24.4444444 115.590244,24.0151515 115.666341,23.6111111 C115.742439,23.2070707 115.843902,22.8282828 116.021463,22.4747475 C116.173659,22.0959596 116.427317,21.7676768 116.731707,21.4646465 C117.162927,21.010101 117.644878,20.6818182 118.202927,20.4545455 C118.760976,20.2272727 119.369756,20.1010101 120.08,20.1010101 Z M94.0039024,20.2272727 C94.1053659,20.2272727 94.2068293,20.3030303 94.2068293,20.4292929 L94.2068293,20.4292929 L94.2068293,28.2828283 C94.2068293,29.520202 95.2468293,30.5555556 96.3629268,30.5555556 C97.4790244,30.5555556 98.4936585,29.4949495 98.5190244,28.2828283 L98.5190244,28.2828283 L98.5190244,20.4292929 C98.5190244,20.3282828 98.595122,20.2272727 98.7219512,20.2272727 L98.7219512,20.2272727 L100.725854,20.2272727 C100.827317,20.2272727 100.92878,20.3030303 100.92878,20.4292929 L100.92878,20.4292929 L100.92878,28.2323232 C100.92878,30.959596 98.8741463,32.7020202 96.3629268,32.7020202 C93.8517073,32.7020202 91.7970732,30.959596 91.7970732,28.2323232 L91.7970732,28.2323232 L91.7970732,20.4292929 C91.7970732,20.3282828 91.8731707,20.2272727 92,20.2272727 L92,20.2272727 Z M81.6,20.2272727 C81.7014634,20.2272727 81.8029268,20.3030303 81.8029268,20.4292929 L81.8029268,20.4292929 L81.8029268,25.4545455 L86.1404878,20.2777778 C86.1658537,20.2272727 86.1658537,20.2272727 86.2165854,20.2272727 L86.2165854,20.2272727 L88.88,20.2272727 C89.0068293,20.2272727 89.0321951,20.3030303 88.9560976,20.4040404 L88.9560976,20.4040404 L85.0243902,25.1515152 L89.3365854,32.4494949 C89.3873171,32.5505051 89.3619512,32.6262626 89.2604878,32.6262626 L89.2604878,32.6262626 L86.8253659,32.6262626 C86.7746341,32.6262626 86.7239024,32.6010101 86.6985366,32.5505051 L86.6985366,32.5505051 L83.4009756,26.969697 L81.8029268,28.8888889 L81.8029268,32.3989899 C81.8029268,32.5 81.7268293,32.6010101 81.6,32.6010101 L81.6,32.6010101 L79.5960976,32.6010101 C79.4946341,32.6010101 79.3931707,32.5252525 79.3931707,32.3989899 L79.3931707,32.3989899 L79.3931707,20.4292929 C79.3931707,20.3282828 79.4692683,20.2272727 79.5960976,20.2272727 L79.5960976,20.2272727 Z M136.593171,20.2272727 C136.669268,20.2272727 136.694634,20.2272727 136.72,20.2777778 L136.72,20.2777778 L141.590244,27.8030303 L141.590244,20.4292929 C141.590244,20.3282828 141.666341,20.2272727 141.793171,20.2272727 L141.793171,20.2272727 L143.797073,20.2272727 C143.898537,20.2272727 144,20.3030303 144,20.4292929 L144,20.4292929 L144,32.3989899 C144,32.5 143.923902,32.6010101 143.797073,32.6010101 L143.797073,32.6010101 L141.945366,32.6010101 C141.869268,32.6010101 141.843902,32.6010101 141.818537,32.5505051 L141.818537,32.5505051 L136.948293,25 L136.948293,32.3989899 C136.948293,32.5 136.872195,32.6010101 136.745366,32.6010101 L136.745366,32.6010101 L134.741463,32.6010101 C134.64,32.6010101 134.538537,32.5252525 134.538537,32.3989899 L134.538537,32.3989899 L134.538537,20.4292929 C134.538537,20.3282828 134.614634,20.2272727 134.741463,20.2272727 L134.741463,20.2272727 Z M130.378537,20.2272727 C130.48,20.2272727 130.581463,20.3030303 130.581463,20.4292929 L130.581463,20.4292929 L130.581463,32.3989899 C130.581463,32.5 130.505366,32.6010101 130.378537,32.6010101 L130.378537,32.6010101 L128.374634,32.6010101 C128.273171,32.6010101 128.171707,32.5252525 128.171707,32.3989899 L128.171707,32.3989899 L128.171707,20.4292929 C128.171707,20.3282828 128.247805,20.2272727 128.374634,20.2272727 L128.374634,20.2272727 Z M67.217561,28.2828283 C67.3443902,28.4848485 67.4458537,28.7373737 67.5219512,29.0151515 C67.5980488,29.3181818 67.6487805,29.6212121 67.6487805,29.9494949 C67.6487805,30.8333333 67.3443902,31.6414141 66.862439,32.0707071 C66.6667596,32.2222222 66.452444,32.3180787 66.2514399,32.3105692 L66.1521951,32.2979798 C66.1014634,32.2979798 66.0507317,32.2727273 66,32.2727273 C65.9746341,32.2727273 65.9492683,32.2474747 65.9239024,32.2474747 C65.8985366,32.2474747 65.8731707,32.2222222 65.8731707,32.2222222 L65.8097561,32.1843434 L65.8097561,32.1843434 L65.7463415,32.1464646 L65.7463415,32.1464646 C65.2897561,31.8434343 64.96,31.1868687 64.8585366,30.4040404 L64.8585366,30.3787879 C64.8585366,30.3030303 64.8331707,30.2272727 64.8331707,30.1515152 L64.8331707,29.7222222 L64.8331707,29.7222222 C64.8331707,29.6464646 64.8331707,29.5707071 64.8585366,29.520202 L64.8585366,29.469697 C64.8585366,29.4191919 64.8839024,29.3686869 64.8839024,29.3181818 L64.8839024,29.2676768 L64.8839024,29.2676768 C64.8839024,29.2171717 64.9092683,29.1666667 64.9092683,29.1414141 C64.9092683,29.1161616 64.9346341,29.0656566 64.9346341,29.040404 C64.9346341,28.989899 64.96,28.9393939 64.9853659,28.9141414 C64.9853659,28.8888889 64.9853659,28.8636364 65.0107317,28.8636364 C65.0360976,28.8131313 65.0360976,28.7626263 65.0614634,28.7373737 L65.0868293,28.6868687 C65.1121951,28.6363636 65.1121951,28.6111111 65.137561,28.5606061 L65.137561,28.5353535 L65.137561,28.5353535 L65.1629268,28.4848485 C65.1882927,28.4343434 65.2136585,28.3838384 65.2643902,28.3080808 C65.2897561,28.2575758 65.3404878,28.2070707 65.3658537,28.1565657 L65.3912195,28.1313131 C65.4081301,28.1144781 65.4137669,28.1088664 65.4156459,28.0995137 L65.4165854,28.0808081 L65.4165854,28.0808081 C65.4165854,28.0555556 65.4419512,28.0555556 65.4419512,28.0555556 L65.48,28.0176768 L65.48,28.0176768 L65.5687805,27.9292929 L65.5687805,27.9292929 C65.5941463,27.9040404 65.5941463,27.9040404 65.6195122,27.9040404 C65.644878,27.8787879 65.6702439,27.8535354 65.6956098,27.8535354 L65.7209756,27.8282828 C65.7463415,27.8030303 65.7970732,27.7777778 65.822439,27.7777778 C65.8478049,27.7777778 65.8478049,27.7777778 65.8478049,27.7525253 C65.8731707,27.7525253 65.8731707,27.7272727 65.8985366,27.7272727 L65.9492683,27.7272727 C65.9746341,27.7272727 66.0253659,27.7020202 66.0507317,27.7020202 L66.177561,27.7020202 C66.6087805,27.5757576 66.9639024,27.8535354 67.217561,28.2828283 Z M65.0614634,27.5252525 C65.0360976,27.5505051 65.0360976,27.5505051 65.0107317,27.5757576 C65.0107317,27.5757576 64.9853659,27.6010101 64.9853659,27.6010101 C65.0107317,27.6767677 64.9853659,27.7020202 64.96,27.7272727 C64.9430894,27.7441077 64.9261789,27.7609428 64.9092683,27.78526 L64.8839024,27.8282828 L64.8839024,27.8282828 L64.8585366,27.8535354 L64.8585366,27.8535354 C64.8247154,27.8872054 64.802168,27.9208754 64.7833785,27.9545455 L64.7570732,28.0050505 C64.4780488,28.459596 64.3004878,29.040404 64.275122,29.6464646 L64.275122,30.4292929 L64.275122,30.4292929 C64.275122,30.479798 64.3004878,30.530303 64.3004878,30.5808081 L64.3004878,30.6565657 L64.3004878,30.6565657 C64.3004878,30.6818182 64.3004878,30.7070707 64.3258537,30.7323232 C64.3258537,30.7828283 64.3512195,30.8080808 64.3512195,30.8585859 L64.3765854,30.9090909 L64.3765854,30.9343434 L64.3765854,30.9343434 C64.3765854,30.9848485 64.4019512,31.010101 64.4019512,31.0606061 L64.4273171,31.1363636 C64.4526829,31.1868687 64.4526829,31.2121212 64.4526829,31.2373737 L64.4780488,31.3131313 L64.4780488,31.3131313 L64.4780488,31.3383838 L64.4780488,31.3383838 C64.4780488,31.3636364 64.5034146,31.3888889 64.5034146,31.4141414 C64.5034146,31.4393939 64.5287805,31.4646465 64.5287805,31.4646465 C64.5541463,31.540404 64.604878,31.5909091 64.6302439,31.6666667 L64.6556098,31.6919192 C64.6809756,31.7424242 64.7317073,31.8181818 64.7570732,31.8434343 C64.7570732,31.8686869 64.782439,31.8686869 64.782439,31.8939394 L64.782439,31.9191919 C64.8078049,31.969697 64.8331707,31.9949495 64.8585366,32.020202 C64.8839024,32.0454545 64.8839024,32.0454545 64.9092683,32.0707071 L65.0614634,32.2222222 L65.0614634,32.2222222 L62.702439,32.2222222 L61.3326829,29.9494949 L62.702439,27.5252525 L65.0614634,27.5252525 Z M120.08,22.2979798 C119.724878,22.2979798 119.445854,22.3484848 119.166829,22.4747475 C118.913171,22.6010101 118.684878,22.7525253 118.507317,22.9545455 C118.405854,23.0808081 118.30439,23.2323232 118.228293,23.3838384 C118.152195,23.5353535 118.101463,23.7373737 118.050732,23.989899 C118,24.2424242 117.974634,24.5707071 117.949268,24.9494949 C117.923902,25.3282828 117.923902,25.8333333 117.923902,26.4141414 C117.923902,26.9949495 117.923902,27.4747475 117.949268,27.8787879 C117.974634,28.2575758 118,28.5858586 118.050732,28.8383838 C118.076098,29.0909091 118.152195,29.2929293 118.228293,29.4444444 C118.30439,29.5959596 118.380488,29.7474747 118.507317,29.8737374 C118.684878,30.0757576 118.887805,30.2272727 119.166829,30.3535354 C119.445854,30.4545455 119.750244,30.530303 120.08,30.530303 C120.409756,30.530303 120.714146,30.479798 120.967805,30.3535354 C121.221463,30.2272727 121.449756,30.0757576 121.627317,29.8737374 C121.754146,29.7474747 121.85561,29.5959596 121.931707,29.4444444 C122.007805,29.2929293 122.058537,29.0909091 122.109268,28.8383838 C122.16,28.5858586 122.185366,28.2575758 122.210732,27.8787879 C122.236098,27.5 122.236098,26.9949495 122.236098,26.4141414 C122.236098,25.8080808 122.236098,25.3282828 122.210732,24.9494949 C122.185366,24.5707071 122.16,24.2424242 122.109268,23.989899 C122.083902,23.7373737 122.007805,23.5353535 121.931707,23.3838384 C121.830244,23.2323232 121.754146,23.0808081 121.627317,22.9545455 C121.449756,22.7525253 121.221463,22.6010101 120.967805,22.4747475 C120.714146,22.3484848 120.409756,22.2979798 120.08,22.2979798 Z M61.2819512,15 L62.2712195,16.6919192 L55.1180488,28.9141414 L40.8878049,28.9141414 L40,27.3484848 L40.1521951,27.0707071 L45.8087805,17.1717172 L46.595122,18.4090909 L47.6858537,20.2020202 L44.3882927,25.7828283 L53.3170732,25.7828283 L57.8068293,18.1313131 L51.2878049,18.1565657 L50.4507317,16.5656566 L49.5882927,15 L51.1863415,15.0252525 L51.3385366,15.0252525 L61.2819512,15 Z M53.1395122,20.6818182 L54.382439,22.7020202 L53.0126829,25.1262626 L50.3492683,25.1515152 L49.1063415,23.1313131 C49.1317073,23.1565657 49.1570732,23.1565657 49.182439,23.1565657 C49.2078049,23.1565657 49.2585366,23.1818182 49.3092683,23.1818182 L49.3092683,23.1818182 L49.3853659,23.1818182 C49.4360976,23.2070707 49.4868293,23.2070707 49.537561,23.2070707 L49.537561,23.2070707 L49.8419512,23.2070707 C49.9180488,23.2070707 49.9941463,23.1818182 50.0702439,23.1818182 L50.0702439,23.1818182 L50.222439,23.1818182 C50.2478049,23.1565657 50.2731707,23.1565657 50.2985366,23.1565657 C50.3239024,23.1565657 50.3492683,23.1313131 50.4,23.1313131 L50.4,23.1313131 L50.4380488,23.1186869 L50.4380488,23.1186869 L50.4760976,23.1060606 C50.5268293,23.1060606 50.5521951,23.1060606 50.6029268,23.0808081 L50.6029268,23.0808081 L50.6282927,23.0808081 L50.6790244,23.0555556 C50.7297561,23.030303 50.755122,23.030303 50.8058537,23.0050505 C50.8058537,23.0050505 50.8312195,22.979798 50.8565854,22.979798 L50.8565854,22.979798 L50.8810117,22.979798 L50.8810117,22.979798 L50.9326829,22.9545455 C50.9580488,22.9545455 51.0087805,22.9292929 51.0595122,22.9040404 C51.0595122,22.9040404 51.084878,22.8787879 51.1102439,22.8787879 L51.1102439,22.8787879 L51.1356098,22.8787879 C51.1863415,22.8787879 51.2117073,22.8535354 51.262439,22.8282828 C51.2878049,22.8282828 51.3131707,22.8282828 51.3385366,22.8030303 L51.3385366,22.8030303 L51.3639024,22.8030303 C51.44,22.7525253 51.4907317,22.7272727 51.5668293,22.6767677 C51.6429268,22.6515152 51.6936585,22.6010101 51.7697561,22.5505051 C52.2770732,22.1969697 52.7082927,21.7676768 52.9365854,21.2878788 L52.9365854,21.2878788 L53.0126829,21.1111111 L53.0126829,21.1111111 L53.030533,21.0924055 C53.0380488,21.0830527 53.0380488,21.0774411 53.0380488,21.0606061 L53.0380488,21.0606061 L53.0446251,21.0288066 C53.0521409,21.0044893 53.0634146,20.976431 53.0634146,20.959596 L53.0634146,20.959596 L53.0677744,20.9248737 C53.0760976,20.8917298 53.095122,20.8585859 53.1141463,20.7828283 L53.1141463,20.7828283 L53.1141463,20.7575758 C53.1395122,20.7323232 53.1395122,20.7070707 53.1395122,20.6818182 L53.1395122,20.6818182 Z M51.4146341,19.3181818 C51.9219512,19.3181818 52.3278049,19.469697 52.6321951,19.8232323 L52.6321951,19.8232323 L52.6509846,19.8671904 C52.6603794,19.8933782 52.6660163,19.9158249 52.6829268,19.9494949 C52.6829268,19.9747475 52.7082927,20.0252525 52.7082927,20.0505051 L52.7082927,20.0505051 L52.7082927,20.530303 L52.7082927,20.530303 L52.6829268,20.6060606 C52.6829268,20.6313131 52.657561,20.6818182 52.657561,20.7070707 C52.6321951,20.7323232 52.6321951,20.7323232 52.6321951,20.7575758 L52.6321951,20.7575758 L52.6256188,20.765058 C52.618103,20.7744108 52.6068293,20.7912458 52.6068293,20.8080808 L52.6068293,20.8080808 L52.5814634,20.8333333 C52.5560976,20.8838384 52.5307317,20.9343434 52.5053659,20.9848485 C52.48,21.0606061 52.4292683,21.1111111 52.4039024,21.1616162 L52.4039024,21.1616162 L52.3785366,21.2121212 L52.3785366,21.2121212 L52.3404878,21.2626263 L52.3404878,21.2626263 L52.302439,21.3131313 L52.2770732,21.3636364 C52.2517073,21.3888889 52.2263415,21.4393939 52.2009756,21.4646465 C52.1925203,21.473064 52.1868835,21.4786756 52.1821861,21.483352 L52.1502439,21.5151515 C52.1417886,21.523569 52.1305149,21.5347924 52.1183017,21.546951 L52.0107317,21.6540404 L52.0107317,21.6540404 L51.9726829,21.6919192 C51.9473171,21.7171717 51.8965854,21.7676768 51.8712195,21.7929293 L51.8712195,21.7929293 L51.8204878,21.8434343 C51.7697561,21.8686869 51.7443902,21.9191919 51.6936585,21.9444444 L51.6936585,21.9444444 L51.6429268,21.969697 C51.5921951,22.020202 51.5160976,22.0454545 51.4653659,22.0959596 C51.3892683,22.1464646 51.3385366,22.1717172 51.262439,22.2222222 C51.2117073,22.2474747 51.1356098,22.2979798 51.084878,22.3232323 C51.0087805,22.3484848 50.9580488,22.3989899 50.8819512,22.4242424 L50.8819512,22.4242424 L50.8565854,22.4242424 C50.1209756,22.7525253 49.3853659,22.8030303 48.9034146,22.5757576 L48.9034146,22.5757576 L48.84,22.5378788 L48.84,22.5378788 L48.7765854,22.5 C48.7512195,22.5 48.7512195,22.4747475 48.7258537,22.4747475 L48.7258537,22.4747475 L48.6497561,22.4242424 C48.5990244,22.3989899 48.5736585,22.3484848 48.5482927,22.3232323 L48.5482927,22.3232323 L48.4878731,22.2336337 C48.3769438,22.0485467 48.3272474,21.8290043 48.3707317,21.5909091 C48.4721951,20.959596 49.004878,20.2777778 49.7658537,19.8232323 C50.044878,19.6717172 50.3239024,19.520202 50.6282927,19.4444444 C50.9073171,19.3686869 51.1609756,19.3181818 51.4146341,19.3181818 Z" id="形状结合"></path>
        </g>
    </g>
</svg>